<svg id="upper" xmlns="http://www.w3.org/2000/svg" xmlns:xlink="http://www.w3.org/1999/xlink" viewBox="0 0 326 1245.54"><defs><style>.cls-1,.cls-10,.cls-12,.cls-2,.cls-7,.cls-8,.cls-9{fill:none;}.cls-1{clip-rule:evenodd;}.cls-3{clip-path:url(#clip-path);}.cls-4{clip-path:url(#clip-path-2);}.cls-5{fill:#fff;}.cls-6{clip-path:url(#clip-path-3);}.cls-12,.cls-7,.cls-9{stroke:#000;}.cls-10,.cls-12,.cls-7,.cls-8,.cls-9{stroke-linecap:round;stroke-linejoin:round;}.cls-7{stroke-width:0.48px;}.cls-8{stroke:#272727;stroke-width:0.78px;}.cls-10,.cls-9{stroke-width:0.24px;}.cls-10{stroke:#191919;}.cls-11{fill-rule:evenodd;}.cls-12{stroke-width:0.3px;}.cls-13{fill:#1d2938;}.cls-14{clip-path:url(#clip-path-5);}.cls-15{clip-path:url(#clip-path-6);}.cls-16{clip-path:url(#clip-path-7);}.cls-17{clip-path:url(#clip-path-8);}.cls-18{clip-path:url(#clip-path-9);}.cls-19{clip-path:url(#clip-path-10);}.cls-20{clip-path:url(#clip-path-11);}.cls-21{clip-path:url(#clip-path-12);}.cls-22{clip-path:url(#clip-path-13);}</style><clipPath id="clip-path"><polyline class="cls-1" points="21.55 1223.44 21.55 1242.45 307.98 1242.45 307.98 1223.44 293.12 1223.44 293.12 1227.59 36.48 1227.59 36.48 1223.44"/></clipPath><clipPath id="clip-path-2"><rect class="cls-2" x="-1484.8" y="-203.3" width="2675.38" height="1783.59"/></clipPath><clipPath id="clip-path-3"><path class="cls-1" d="M174.65,6.89V26.64H214.9V6.89H174.65ZM7.19,6.89V1073H324V6.89H270.58V26.64H304.2v98.53H243.51v31h47.75v595.4H243.51v44.09h42.55v238.06h-241V795.63H187.77V751.53H39.64V156.14H187.77v-31H26.88V26.64H119V6.89H7.19Z"/></clipPath><clipPath id="clip-path-5"><path class="cls-1" d="M734.08,1218.84v22.5h98.23v-22.5H734.08Zm-115,0v22.5h14.52v-22.5H619.13Zm-97.84,0v22.5h28.14v-22.5H521.29Z"/></clipPath><clipPath id="clip-path-6"><path class="cls-1" d="M748.48,737.49v19.39h58.35V737.49H748.48Zm-159.37,0v19.39H611.8V737.49H589.11ZM793.21,68V84.26h33V756.87H842V68H793.21ZM690.38,68V84.26h42.08V68H690.38Zm-99.85,0V84.26h39.1V68h-39.1ZM516,68V756.87h24.51V737.49h-6.48V84.26H542V68H516Z"/></clipPath><clipPath id="clip-path-7"><path class="cls-1" d="M1828,90.25v14h46.32v-14H1828Zm-142,0v14h82.15v-14H1686Zm-99,0v14h39.1v-14H1587Z"/></clipPath><clipPath id="clip-path-8"><path class="cls-1" d="M1784.08,1208.22v22.1h96.78v-22.1h-96.78Zm-209.67,0v22.1h27.73v-22.1h-27.73Z"/></clipPath><clipPath id="clip-path-9"><path class="cls-1" d="M1631.85,435.67v10.54h7.6V435.67h-7.6Zm0-111.92v16.16h7.6V323.75h-7.6Z"/></clipPath><clipPath id="clip-path-10"><path class="cls-1" d="M1700.27,728.9v7.54h9.58V728.9h-9.58Zm-61.71,0v7.54h13.86V728.9h-13.86Z"/></clipPath><clipPath id="clip-path-11"><path class="cls-1" d="M1634.79,875.83v18.85h7.54V875.83h-7.54Zm3.77-139.39V753h-3.77V764.1h7.54V736.44h-3.77Z"/></clipPath><clipPath id="clip-path-12"><path class="cls-1" d="M1890.45,74.28V753m-321.21,0V74.28"/></clipPath><clipPath id="clip-path-13"><path class="cls-1" d="M1855.7,533.35V541h9.58v-7.6h-9.58Zm-149.62,0V541h101.77v-7.6H1706.08Zm-61.26,0V541h13.42v-7.6h-13.42Z"/></clipPath></defs><title>floorplan</title><g class="cls-3"><g class="cls-4"><rect class="cls-5" x="21.55" y="1223.44" width="286.43" height="19.01"/></g></g><rect class="cls-5" x="21.55" y="1072.95" width="14.93" height="150.49"/><rect class="cls-5" x="293.12" y="1072.95" width="14.86" height="150.49"/><g class="cls-6"><g class="cls-4"><rect class="cls-5" x="7.19" y="6.89" width="316.77" height="1066.06"/></g></g><polyline class="cls-7" points="323.77 6.89 7.19 6.89 7.19 26.64 7.19 736.42 7.19 795.63 7.19 1072.95"/><line class="cls-8" x1="39.64" y1="736.42" x2="39.64" y2="171.19"/><line class="cls-8" x1="39.64" y1="125.17" x2="26.88" y2="125.17"/><line class="cls-8" x1="7.19" y1="125.17" x2="7.19" y2="736.42"/><line class="cls-8" x1="39.64" y1="171.19" x2="291.26" y2="171.19"/><line class="cls-8" x1="291.26" y1="125.17" x2="243.51" y2="125.17"/><line class="cls-8" x1="187.77" y1="125.17" x2="39.64" y2="125.17"/><line class="cls-8" x1="304.2" y1="125.17" x2="291.26" y2="125.17"/><polyline class="cls-8" points="291.26 171.19 291.26 736.42 39.64 736.42"/><line class="cls-8" x1="7.19" y1="736.42" x2="7.19" y2="795.63"/><line class="cls-8" x1="26.88" y1="26.64" x2="304.2" y2="26.64"/><polyline class="cls-8" points="323.96 26.64 323.96 6.89 7.19 6.89 7.19 26.64"/><line class="cls-8" x1="26.88" y1="125.17" x2="26.88" y2="26.64"/><line class="cls-8" x1="7.19" y1="26.64" x2="7.19" y2="125.17"/><line class="cls-8" x1="323.96" y1="125.17" x2="323.96" y2="26.64"/><line class="cls-8" x1="304.2" y1="26.64" x2="304.2" y2="125.17"/><line class="cls-8" x1="323.96" y1="1072.95" x2="323.96" y2="795.63"/><line class="cls-8" x1="313.31" y1="1072.95" x2="323.96" y2="1072.95"/><line class="cls-7" x1="293.12" y1="1072.95" x2="307.98" y2="1072.95"/><polyline class="cls-8" points="7.19 795.63 7.19 1072.95 16.23 1072.95"/><line class="cls-7" x1="21.55" y1="1072.95" x2="36.48" y2="1072.95"/><line class="cls-7" x1="36.48" y1="1072.95" x2="21.55" y2="1072.95"/><line class="cls-7" x1="307.98" y1="1072.95" x2="293.12" y2="1072.95"/><polyline class="cls-8" points="84.54 519.54 84.54 694.75 91.84 694.75 91.84 519.54 84.54 519.54"/><line class="cls-9" x1="41.99" y1="594.98" x2="39.64" y2="594.98"/><line class="cls-9" x1="41.99" y1="596.52" x2="39.64" y2="596.52"/><line class="cls-9" x1="41.99" y1="579.86" x2="39.64" y2="579.86"/><line class="cls-9" x1="41.99" y1="581.41" x2="39.64" y2="581.41"/><line class="cls-9" x1="41.99" y1="564.75" x2="39.64" y2="564.75"/><line class="cls-9" x1="41.99" y1="566.3" x2="39.64" y2="566.3"/><line class="cls-9" x1="41.99" y1="549.7" x2="39.64" y2="549.7"/><line class="cls-9" x1="41.99" y1="551.25" x2="39.64" y2="551.25"/><line class="cls-9" x1="41.99" y1="534.59" x2="39.64" y2="534.59"/><line class="cls-9" x1="41.99" y1="536.14" x2="39.64" y2="536.14"/><line class="cls-9" x1="41.99" y1="521.09" x2="39.64" y2="521.09"/><line class="cls-9" x1="41.99" y1="519.54" x2="39.64" y2="519.54"/><line class="cls-10" x1="187.77" y1="141.83" x2="192.05" y2="137.56"/><line class="cls-10" x1="187.77" y1="148.4" x2="198.61" y2="137.56"/><line class="cls-10" x1="187.77" y1="154.96" x2="205.18" y2="137.56"/><line class="cls-10" x1="193.22" y1="156.14" x2="211.74" y2="137.56"/><line class="cls-10" x1="199.79" y1="156.14" x2="218.31" y2="137.56"/><line class="cls-10" x1="206.35" y1="156.14" x2="224.87" y2="137.56"/><line class="cls-10" x1="212.92" y1="156.14" x2="231.44" y2="137.56"/><line class="cls-10" x1="219.48" y1="156.14" x2="238" y2="137.56"/><line class="cls-10" x1="226.05" y1="156.14" x2="243.51" y2="138.61"/><line class="cls-10" x1="232.55" y1="156.14" x2="243.51" y2="145.18"/><line class="cls-10" x1="239.11" y1="156.14" x2="243.51" y2="151.74"/><line class="cls-10" x1="187.77" y1="752.28" x2="188.58" y2="751.53"/><line class="cls-10" x1="187.77" y1="758.84" x2="195.14" y2="751.53"/><line class="cls-10" x1="187.77" y1="765.41" x2="201.71" y2="751.53"/><line class="cls-10" x1="189.69" y1="770.05" x2="208.27" y2="751.53"/><line class="cls-10" x1="196.26" y1="770.05" x2="214.84" y2="751.53"/><line class="cls-10" x1="202.82" y1="770.05" x2="221.4" y2="751.53"/><line class="cls-10" x1="209.39" y1="770.05" x2="227.97" y2="751.53"/><line class="cls-10" x1="215.95" y1="770.05" x2="234.53" y2="751.53"/><line class="cls-10" x1="222.52" y1="770.05" x2="241.1" y2="751.53"/><line class="cls-10" x1="229.08" y1="770.05" x2="243.51" y2="755.68"/><line class="cls-10" x1="235.65" y1="770.05" x2="243.51" y2="762.25"/><line class="cls-10" x1="242.21" y1="770.05" x2="243.51" y2="768.81"/><line class="cls-10" x1="193.66" y1="770.05" x2="187.77" y2="764.23"/><line class="cls-10" x1="200.22" y1="770.05" x2="187.77" y2="757.67"/><line class="cls-10" x1="206.79" y1="770.05" x2="188.21" y2="751.53"/><line class="cls-10" x1="213.35" y1="770.05" x2="194.77" y2="751.53"/><line class="cls-10" x1="219.92" y1="770.05" x2="201.34" y2="751.53"/><line class="cls-10" x1="226.48" y1="770.05" x2="207.9" y2="751.53"/><line class="cls-10" x1="233.05" y1="770.05" x2="214.47" y2="751.53"/><line class="cls-10" x1="239.61" y1="770.05" x2="221.03" y2="751.53"/><line class="cls-10" x1="243.51" y1="767.39" x2="227.6" y2="751.53"/><line class="cls-10" x1="243.51" y1="760.82" x2="234.16" y2="751.53"/><line class="cls-10" x1="243.51" y1="754.26" x2="240.72" y2="751.53"/><line class="cls-10" x1="190.19" y1="156.14" x2="187.77" y2="153.72"/><line class="cls-10" x1="196.75" y1="156.14" x2="187.77" y2="147.16"/><line class="cls-10" x1="203.32" y1="156.14" x2="187.77" y2="140.59"/><line class="cls-10" x1="209.88" y1="156.14" x2="191.3" y2="137.56"/><line class="cls-10" x1="216.45" y1="156.14" x2="197.87" y2="137.56"/><line class="cls-10" x1="223.01" y1="156.14" x2="204.43" y2="137.56"/><line class="cls-10" x1="229.58" y1="156.14" x2="211" y2="137.56"/><line class="cls-10" x1="236.14" y1="156.14" x2="217.56" y2="137.56"/><line class="cls-10" x1="242.71" y1="156.14" x2="224.13" y2="137.56"/><line class="cls-10" x1="243.51" y1="150.32" x2="230.69" y2="137.56"/><line class="cls-10" x1="243.51" y1="143.75" x2="237.26" y2="137.56"/><line class="cls-10" x1="118.97" y1="7.2" x2="119.22" y2="6.89"/><line class="cls-10" x1="118.97" y1="13.76" x2="125.78" y2="6.89"/><line class="cls-10" x1="119.96" y1="19.27" x2="132.35" y2="6.89"/><line class="cls-10" x1="126.53" y1="19.27" x2="138.91" y2="6.89"/><line class="cls-10" x1="133.09" y1="19.27" x2="145.48" y2="6.89"/><line class="cls-10" x1="139.65" y1="19.27" x2="152.04" y2="6.89"/><line class="cls-10" x1="146.22" y1="19.27" x2="158.61" y2="6.89"/><line class="cls-10" x1="152.78" y1="19.27" x2="165.17" y2="6.89"/><line class="cls-10" x1="159.35" y1="19.27" x2="171.73" y2="6.89"/><line class="cls-10" x1="165.91" y1="19.27" x2="174.65" y2="10.54"/><line class="cls-10" x1="172.48" y1="19.27" x2="174.65" y2="17.11"/><line class="cls-10" x1="118.97" y1="19.27" x2="118.97" y2="19.21"/><line class="cls-10" x1="125.53" y1="19.27" x2="118.97" y2="12.65"/><line class="cls-10" x1="132.1" y1="19.27" x2="119.77" y2="6.89"/><line class="cls-10" x1="138.66" y1="19.27" x2="126.34" y2="6.89"/><line class="cls-10" x1="145.23" y1="19.27" x2="132.9" y2="6.89"/><line class="cls-10" x1="151.79" y1="19.27" x2="139.47" y2="6.89"/><line class="cls-10" x1="158.36" y1="19.27" x2="146.03" y2="6.89"/><line class="cls-10" x1="164.92" y1="19.27" x2="152.6" y2="6.89"/><line class="cls-10" x1="171.49" y1="19.27" x2="159.16" y2="6.89"/><line class="cls-10" x1="174.65" y1="15.87" x2="165.73" y2="6.89"/><line class="cls-10" x1="174.65" y1="9.3" x2="172.29" y2="6.89"/><polyline class="cls-8" points="45.09 795.63 45.09 1033.69 286.06 1033.69 286.06 795.63 255.9 795.63"/><line class="cls-7" x1="243.51" y1="795.63" x2="243.51" y2="770.05"/><line class="cls-8" x1="243.51" y1="770.05" x2="187.77" y2="770.05"/><line class="cls-7" x1="187.77" y1="770.05" x2="187.77" y2="795.63"/><polyline class="cls-7" points="187.78 125.17 187.78 137.56 243.51 137.56 243.51 125.17"/><polyline class="cls-8" points="118.97 26.64 174.65 26.64 174.65 19.27 118.97 19.27 118.97 26.64"/><line class="cls-8" x1="270.58" y1="26.64" x2="270.58" y2="19.27"/><line class="cls-7" x1="270.58" y1="19.27" x2="214.9" y2="19.27"/><polyline class="cls-8" points="214.9 19.27 214.9 26.64 270.57 26.64"/><polyline class="cls-8" points="270.57 14.26 270.57 6.89 214.9 6.89 214.9 14.26"/><line class="cls-7" x1="214.9" y1="14.26" x2="270.58" y2="14.26"/><polyline class="cls-8" points="256.83 795.63 286.06 795.63 286.06 1033.69"/><line class="cls-8" x1="45.09" y1="1033.69" x2="286.06" y2="1033.69"/><line class="cls-8" x1="243.51" y1="795.63" x2="243.51" y2="770.05"/><line class="cls-8" x1="187.77" y1="795.63" x2="187.77" y2="770.05"/><line class="cls-8" x1="243.51" y1="137.56" x2="243.51" y2="125.17"/><line class="cls-8" x1="187.77" y1="137.56" x2="187.77" y2="125.17"/><polyline class="cls-8" points="39.64 751.53 39.64 156.14 187.77 156.14 187.77 125.17 26.88 125.17 26.88 26.64 118.97 26.64 118.97 6.89 7.19 6.89 7.19 1072.95 323.96 1072.95 323.96 6.89 270.57 6.89 270.57 26.64 304.2 26.64 304.2 125.17 243.51 125.17 243.51 156.14 291.26 156.14 291.26 751.53 243.51 751.53 243.51 795.63 286.06 795.63 286.06 1033.69 45.09 1033.69 45.09 795.63 187.77 795.63 187.77 751.53 39.64 751.53"/><polyline class="cls-8" points="214.9 6.89 174.65 6.89 174.65 26.64 214.9 26.64 214.9 6.89"/><polyline class="cls-8" points="187.78 156.14 243.51 156.14 243.51 137.56 187.78 137.56 187.78 156.14"/><polyline class="cls-8" points="187.78 751.53 187.78 770.05 243.51 770.05 243.51 751.53 187.78 751.53"/><polyline class="cls-8" points="21.55 1242.45 21.55 1072.95 16.23 1072.95"/><polyline class="cls-8" points="313.31 1072.95 307.98 1072.95 307.98 1242.45 21.55 1242.45"/><polyline class="cls-8" points="118.97 19.27 174.65 19.27 174.65 6.89 118.97 6.89 118.97 19.27"/><line class="cls-8" x1="214.9" y1="6.89" x2="214.9" y2="26.64"/><line class="cls-8" x1="270.58" y1="6.89" x2="270.58" y2="26.64"/><line class="cls-9" x1="44.28" y1="519.54" x2="84.54" y2="519.54"/><polyline class="cls-9" points="91.84 583.13 70.67 593.43 69.18 599.06 65.83 591.2 64.41 596.52 39.51 608.11"/><line class="cls-9" x1="44.28" y1="521.09" x2="47.87" y2="521.09"/><line class="cls-9" x1="50.79" y1="521.09" x2="55.43" y2="521.09"/><line class="cls-9" x1="58.34" y1="521.09" x2="62.99" y2="521.09"/><line class="cls-9" x1="65.83" y1="521.09" x2="70.48" y2="521.09"/><line class="cls-9" x1="73.39" y1="521.09" x2="78.03" y2="521.09"/><line class="cls-9" x1="80.95" y1="521.09" x2="84.54" y2="521.09"/><line class="cls-9" x1="41.99" y1="503.26" x2="41.99" y2="606.99"/><line class="cls-9" x1="44.28" y1="500.97" x2="44.28" y2="605.88"/><line class="cls-9" x1="44.28" y1="534.59" x2="84.54" y2="534.59"/><line class="cls-9" x1="44.28" y1="536.14" x2="47.87" y2="536.14"/><line class="cls-9" x1="50.79" y1="536.14" x2="55.43" y2="536.14"/><line class="cls-9" x1="58.34" y1="536.14" x2="62.99" y2="536.14"/><line class="cls-9" x1="65.83" y1="536.14" x2="70.48" y2="536.14"/><line class="cls-9" x1="73.39" y1="536.14" x2="78.03" y2="536.14"/><line class="cls-9" x1="80.94" y1="536.14" x2="84.54" y2="536.14"/><line class="cls-9" x1="44.28" y1="549.7" x2="84.54" y2="549.7"/><line class="cls-9" x1="44.28" y1="551.25" x2="47.87" y2="551.25"/><line class="cls-9" x1="50.79" y1="551.25" x2="55.43" y2="551.25"/><line class="cls-9" x1="58.34" y1="551.25" x2="62.99" y2="551.25"/><line class="cls-9" x1="65.83" y1="551.25" x2="70.48" y2="551.25"/><line class="cls-9" x1="73.39" y1="551.25" x2="78.03" y2="551.25"/><line class="cls-9" x1="80.94" y1="551.25" x2="84.54" y2="551.25"/><line class="cls-9" x1="44.28" y1="564.75" x2="84.54" y2="564.75"/><line class="cls-9" x1="44.28" y1="566.3" x2="47.87" y2="566.3"/><line class="cls-9" x1="50.78" y1="566.3" x2="55.43" y2="566.3"/><line class="cls-9" x1="58.34" y1="566.3" x2="62.99" y2="566.3"/><line class="cls-9" x1="65.83" y1="566.3" x2="70.48" y2="566.3"/><line class="cls-9" x1="73.39" y1="566.3" x2="78.03" y2="566.3"/><line class="cls-9" x1="80.94" y1="566.3" x2="84.54" y2="566.3"/><line class="cls-9" x1="44.28" y1="579.86" x2="84.54" y2="579.86"/><line class="cls-9" x1="44.28" y1="581.41" x2="47.87" y2="581.41"/><line class="cls-9" x1="50.78" y1="581.41" x2="55.43" y2="581.41"/><line class="cls-9" x1="58.34" y1="581.41" x2="62.98" y2="581.41"/><line class="cls-9" x1="65.83" y1="581.41" x2="70.48" y2="581.41"/><line class="cls-9" x1="73.39" y1="581.41" x2="78.03" y2="581.41"/><line class="cls-9" x1="80.94" y1="581.41" x2="84.54" y2="581.41"/><line class="cls-9" x1="44.28" y1="594.98" x2="64.84" y2="594.98"/><line class="cls-9" x1="44.28" y1="596.52" x2="49.11" y2="596.52"/><line class="cls-9" x1="52.02" y1="596.52" x2="56.67" y2="596.52"/><line class="cls-9" x1="59.58" y1="596.52" x2="64.41" y2="596.52"/><line class="cls-9" x1="44.28" y1="500.97" x2="39.64" y2="500.97"/><line class="cls-9" x1="41.99" y1="503.26" x2="39.64" y2="503.26"/><line class="cls-9" x1="21.55" y1="1242.45" x2="21.55" y2="1072.95"/><line class="cls-9" x1="36.48" y1="1227.59" x2="36.48" y2="1072.95"/><line class="cls-9" x1="293.12" y1="1227.59" x2="293.12" y2="1072.95"/><line class="cls-9" x1="307.98" y1="1242.45" x2="307.98" y2="1072.95"/><line class="cls-9" x1="307.98" y1="1242.45" x2="21.55" y2="1242.45"/><line class="cls-9" x1="293.12" y1="1227.59" x2="36.48" y2="1227.59"/><polygon class="cls-11" points="63.79 586.43 65.03 577.14 62.55 577.14 63.79 586.43"/><polygon class="cls-9" points="63.79 586.43 65.03 577.14 62.55 577.14 63.79 586.43"/><line class="cls-9" x1="63.79" y1="586.43" x2="63.79" y2="520.04"/><line class="cls-12" x1="39.64" y1="495.52" x2="39.64" y2="490.87"/><line class="cls-12" x1="39.64" y1="495.52" x2="39.64" y2="497.68"/><rect class="cls-13" x="7.19" y="6.89" width="111.78" height="19.76"/><rect class="cls-13" x="174.65" y="6.89" width="40.25" height="19.76"/><rect class="cls-13" x="270.58" y="6.89" width="53.38" height="19.76"/><rect class="cls-13" x="304.2" y="26.64" width="19.57" height="129.5"/><rect class="cls-13" x="243.51" y="125.17" width="62.85" height="30.97"/><rect class="cls-13" x="24.06" y="125.17" width="163.71" height="30.97"/><rect class="cls-13" x="7.19" y="26.64" width="19.69" height="129.5"/><rect class="cls-13" x="7.19" y="156.14" width="32.45" height="639.49"/><rect class="cls-13" x="291.26" y="156.14" width="32.51" height="639.49"/><rect class="cls-13" x="7.19" y="751.53" width="180.59" height="44.09"/><rect class="cls-13" x="243.51" y="751.53" width="80.45" height="44.09"/><rect class="cls-13" x="7.19" y="795.63" width="37.9" height="277.32"/><rect class="cls-13" x="45.09" y="1033.69" width="240.97" height="39.26"/><rect class="cls-13" x="286.06" y="795.63" width="37.9" height="277.32"/><rect class="cls-13" x="21.55" y="1072.95" width="14.93" height="169.5"/><rect class="cls-13" x="36.48" y="1227.59" width="271.5" height="14.86"/><rect class="cls-13" x="293.12" y="1072.95" width="14.86" height="154.64"/></svg>