<svg xmlns="http://www.w3.org/2000/svg" xmlns:xlink="http://www.w3.org/1999/xlink" viewBox="2028 0 32 32">
  <defs>
    <style>
      .cls-1 {
        clip-path: url(#clip-about-active);
      }

      .cls-2 {
        fill: #3498db;
      }
    </style>
    <clipPath id="clip-about-active">
      <rect x="2028" width="32" height="32"/>
    </clipPath>
  </defs>
  <g id="about-active" class="cls-1">
    <path id="Path_7" data-name="Path 7" class="cls-2" d="M32.27,10.919,29.152.58A.815.815,0,0,0,28.372,0H6.273a.815.815,0,0,0-.781.58l-3.134,10.4a.815.815,0,0,0,.781,1.051h.747V29.658a.845.845,0,0,0,.849.815H30.011a.787.787,0,0,0,.781-.815V12.026h.715a.816.816,0,0,0,.762-1.107ZM29.162,28.843H20.6V22.728a.787.787,0,0,0-.781-.815H14.825a.845.845,0,0,0-.849.815v6.115H5.517V12.026H29.162Zm-13.555-5.3H18.97v5.3H15.607ZM27.766,1.631,30.409,10.4H4.236L6.879,1.631Z" transform="translate(2026.677 1)"/>
    <path id="Path_8" data-name="Path 8" class="cls-2" d="M204.651,209.815a.815.815,0,0,0-.815-.815h-3.363a.815.815,0,0,0-.815.815v4.994a.815.815,0,0,0,.815.815h3.363a.815.815,0,0,0,.815-.815Zm-3.363.815h1.733v3.363h-1.733Z" transform="translate(1849.455 -186.699)"/>
    <path id="Path_9" data-name="Path 9" class="cls-2" d="M55.651,209.815a.815.815,0,0,0-.815-.815H51.472a.815.815,0,0,0-.815.815v4.994a.815.815,0,0,0,.815.815h3.363a.815.815,0,0,0,.815-.815Zm-3.363.815H54.02v3.363H52.288Z" transform="translate(1983.269 -186.699)"/>
    <path id="Path_10" data-name="Path 10" class="cls-2" d="M204.651,135.815a.815.815,0,0,0-.815-.815h-3.363a.815.815,0,0,0-.815.815v4.994a.815.815,0,0,0,.815.815h3.363a.815.815,0,0,0,.815-.815Zm-3.363.815h1.733v3.363h-1.733Z" transform="translate(1849.455 -120.241)"/>
    <path id="Path_11" data-name="Path 11" class="cls-2" d="M55.651,135.815a.815.815,0,0,0-.815-.815H51.472a.815.815,0,0,0-.815.815v4.994a.815.815,0,0,0,.815.815h3.363a.815.815,0,0,0,.815-.815Zm-3.363.815H54.02v3.363H52.288Z" transform="translate(1983.269 -120.241)"/>
    <path id="Path_12" data-name="Path 12" class="cls-2" d="M129.651,135.815a.815.815,0,0,0-.815-.815h-3.363a.815.815,0,0,0-.815.815v4.994a.815.815,0,0,0,.815.815h3.363a.815.815,0,0,0,.815-.815Zm-3.363.815h1.733v3.363h-1.733Z" transform="translate(1916.811 -120.241)"/>
  </g>
</svg>
